# xmcd
#
# Track frame offsets: 
#        150
#        18722
#        35195
#        55127
#        62657
#        70495
#        85932
#        100280
#        110015
#        133472
#        143917
#        160682
#        173067
#        192957
#        209072
#        222262
#        243742
#        259850
#        273672
#        286327
#        302275
#        311260
#        329497
#
# Disc length: 4633 seconds
#
# Revision: 0
# Processed by: cddbd v1.4PL0 Copyright (c) Steve Scherf et al.
# Submitted via: ExactAudioCopy v0.90b4
#
DISCID=6e121717
DTITLE=John Denver - poems, prayers and promises and farewell andromeda
DYEAR=2001
DGENRE=Country
TTITLE0=poems, prayers and promises
TTITLE1=let it be
TTITLE2=my sweet lady
TTITLE3=wooden indian
TTITLE4=junk
TTITLE5=gospel changes
TTITLE6=take me home, country roads
TTITLE7=i guess he'd rather be in colorado
TTITLE8=sunshine on my shoulders
TTITLE9=around and around
TTITLE10=fire and rain
TTITLE11=the box
TTITLE12=i'd rather be a cowboy
TTITLE13=berkeley woman
TTITLE14=please, daddy
TTITLE15=angels from montgomery
TTITLE16=river of love
TTITLE17=rocky mountain suite (cold nights in canada)
TTITLE18=whiskey basin blues
TTITLE19=sweet misery
TTITLE20=zachary and jennifer
TTITLE21=we don't live here no more
TTITLE22=farewell andromeda (welcome to my morning)
EXTD=
EXTT0=
EXTT1=
EXTT2=
EXTT3=
EXTT4=
EXTT5=
EXTT6=
EXTT7=
EXTT8=
EXTT9=
EXTT10=
EXTT11=
EXTT12=
EXTT13=
EXTT14=
EXTT15=
EXTT16=
EXTT17=
EXTT18=
EXTT19=
EXTT20=
EXTT21=
EXTT22=
PLAYORDER=
